<svg xmlns="http://www.w3.org/2000/svg" viewBox="0 0 256 256" role="img" aria-labelledby="title desc">
  <title id="title">Spring Guardian</title>
  <desc id="desc">Modern shield logo for Spring Guardian, protecting Spring projects from architectural risks.</desc>
  <defs>
    <linearGradient id="bg" x1="28" y1="16" x2="226" y2="240" gradientUnits="userSpaceOnUse">
      <stop stop-color="#10251f"/>
      <stop offset="1" stop-color="#061510"/>
    </linearGradient>
    <linearGradient id="shield" x1="73" y1="45" x2="179" y2="214" gradientUnits="userSpaceOnUse">
      <stop stop-color="#78f0b2"/>
      <stop offset="0.52" stop-color="#25c982"/>
      <stop offset="1" stop-color="#0f8f61"/>
    </linearGradient>
    <filter id="shadow" x="-30%" y="-30%" width="160%" height="160%">
      <feDropShadow dx="0" dy="18" stdDeviation="16" flood-color="#000000" flood-opacity="0.35"/>
    </filter>
  </defs>

  <rect width="256" height="256" rx="58" fill="url(#bg)"/>
  <circle cx="206" cy="48" r="28" fill="#16a34a" opacity="0.18"/>
  <circle cx="45" cy="206" r="34" fill="#38bdf8" opacity="0.10"/>

  <g opacity="0.38" fill="none" stroke="#9ca3af" stroke-width="7" stroke-linecap="round" stroke-linejoin="round">
    <path d="M44 86l-20 20 20 20"/>
    <path d="M212 86l20 20-20 20"/>
    <path d="M191 70l-17 70"/>
  </g>

  <g filter="url(#shadow)">
    <path d="M128 31l76 29v58c0 48-28 86-76 106-48-20-76-58-76-106V60l76-29z" fill="url(#shield)" stroke="#d1fae5" stroke-width="8" stroke-linejoin="round"/>
    <path d="M88 104l-22 22 22 22" fill="none" stroke="#052e16" stroke-width="12" stroke-linecap="round" stroke-linejoin="round"/>
    <path d="M168 104l22 22-22 22" fill="none" stroke="#052e16" stroke-width="12" stroke-linecap="round" stroke-linejoin="round"/>
    <path d="M143 86l-30 84" fill="none" stroke="#052e16" stroke-width="12" stroke-linecap="round"/>
    <path d="M84 70c19-12 49-21 88 0" fill="none" stroke="#ecfdf5" stroke-opacity="0.55" stroke-width="7" stroke-linecap="round"/>
  </g>
</svg>
